# Blender 4.2.7 LTS
# www.blender.org
mtllib landing_pad.mtl
o 柱体
v 0.000000 0.050000 -2.911572
v 0.568020 0.050000 -2.855627
v 1.114210 0.050000 -2.689942
v 1.148050 0.048533 -2.771638
v 1.617583 0.050000 -2.420884
v 1.666711 0.048533 -2.494409
v 2.058792 0.050000 -2.058792
v 2.121320 0.048533 -2.121320
v 2.420884 0.050000 -1.617583
v 2.689942 0.050000 -1.114210
v 2.771638 0.048533 -1.148050
v 2.855627 0.050000 -0.568020
v 2.942356 0.048533 -0.585271
v 2.911572 0.050000 0.000000
v 3.000000 0.048533 0.000000
v 2.855627 0.050000 0.568020
v 2.689942 0.050000 1.114210
v 2.771638 0.048533 1.148050
v 2.420884 0.050000 1.617583
v 2.494409 0.048533 1.666711
v 2.058792 0.050000 2.058792
v 2.121320 0.048533 2.121320
v 1.617583 0.050000 2.420884
v 1.666711 0.048533 2.494409
v 1.114210 0.050000 2.689942
v 1.063838 0.048533 2.797184
v 1.225661 0.048533 2.730155
v 0.568020 0.050000 2.855627
v 0.585271 0.048533 2.942356
v 0.000000 0.050000 2.911572
v -0.568020 0.050000 2.855627
v -0.585271 0.048533 2.942356
v -1.114210 0.050000 2.689942
v -1.148050 0.048533 2.771638
v -1.617583 0.050000 2.420884
v -2.058792 0.050000 2.058792
v -2.121320 0.048533 2.121320
v -2.420884 0.050000 1.617583
v -2.494409 0.048533 1.666711
v -2.689942 0.050000 1.114210
v -2.771638 0.048533 1.148050
v -2.855627 0.050000 0.568020
v -2.942356 0.048533 0.585271
v -2.911572 0.050000 0.000000
v -3.000000 0.048533 0.000000
v -2.855627 0.050000 -0.568020
v -2.942356 0.048533 -0.585271
v -2.689942 0.050000 -1.114210
v -2.771638 0.048533 -1.148050
v -2.420884 0.050000 -1.617583
v -2.494409 0.048533 -1.666711
v -2.058792 0.050000 -2.058792
v -1.617583 0.050000 -2.420884
v -1.114210 0.050000 -2.689942
v -1.148050 0.048533 -2.771638
v -0.568020 0.050000 -2.855627
v -0.585271 0.048533 -2.942356
v 0.034389 -0.049424 -2.996613
v -0.000000 -0.050000 -2.965278
v -0.034389 -0.049424 -2.996613
v 0.550882 -0.049424 -2.945743
v 0.618338 -0.049424 -2.932325
v 0.578497 -0.050000 -2.908301
v 1.148050 -0.049424 -2.771638
v 1.134763 -0.050000 -2.739559
v 1.666711 -0.049424 -2.494409
v 1.647420 -0.050000 -2.465538
v 2.121320 -0.049424 -2.121320
v 2.096768 -0.050000 -2.096768
v 2.472487 -0.049424 -1.693422
v 2.510698 -0.049424 -1.636236
v 2.465538 -0.050000 -1.647420
v 2.771638 -0.049424 -1.148050
v 2.739559 -0.050000 -1.134763
v 2.942356 -0.049424 -0.585271
v 2.908301 -0.050000 -0.578497
v 3.000000 -0.049424 0.000000
v 2.965278 -0.050000 -0.000000
v 2.945743 -0.049424 0.550882
v 2.932325 -0.049424 0.618338
v 2.908301 -0.050000 0.578497
v 2.771638 -0.049424 1.148050
v 2.739559 -0.050000 1.134763
v 2.494409 -0.049424 1.666711
v 2.465538 -0.050000 1.647420
v 2.121320 -0.049424 2.121320
v 2.096768 -0.050000 2.096768
v 1.647420 -0.050000 2.465538
v 1.666711 -0.049424 2.494409
v 0.578497 -0.050000 2.908301
v 0.585271 -0.049424 2.942356
v 0.034389 -0.049424 2.996613
v -0.034389 -0.049424 2.996613
v 0.000000 -0.050000 2.965278
v -0.585271 -0.049424 2.942356
v -0.578497 -0.050000 2.908301
v -1.148050 -0.049424 2.771638
v -1.134763 -0.050000 2.739559
v -1.636236 -0.049424 2.510698
v -1.693422 -0.049424 2.472487
v -1.647420 -0.050000 2.465538
v -2.121320 -0.049424 2.121320
v -2.096768 -0.050000 2.096768
v -2.494409 -0.049424 1.666711
v -2.465538 -0.050000 1.647420
v -2.771638 -0.049424 1.148050
v -2.739559 -0.050000 1.134763
v -2.942356 -0.049424 0.585271
v -2.908301 -0.050000 0.578497
v -3.000000 -0.049424 0.000000
v -2.965278 -0.050000 0.000000
v -2.942356 -0.049424 -0.585271
v -2.908301 -0.050000 -0.578497
v -2.771638 -0.049424 -1.148050
v -2.739559 -0.050000 -1.134763
v -2.494409 -0.049424 -1.666711
v -2.465538 -0.050000 -1.647420
v -2.143242 -0.049424 -2.094609
v -2.094609 -0.049424 -2.143242
v -2.096768 -0.050000 -2.096768
v -1.693422 -0.049424 -2.472487
v -1.636236 -0.049424 -2.510698
v -1.647420 -0.050000 -2.465538
v -1.148050 -0.049424 -2.771638
v -1.134763 -0.050000 -2.739559
v -0.585271 -0.049424 -2.942356
v -0.578497 -0.050000 -2.908301
v 0.034389 0.048533 -2.996613
v -0.034389 0.048533 -2.996613
v 0.000000 0.048940 -2.975507
v 0.618338 0.048533 -2.932325
v 0.550882 0.048533 -2.945743
v 0.580493 0.048940 -2.918333
v 2.510698 0.048533 -1.636236
v 2.472487 0.048533 -1.693422
v 2.474044 0.048940 -1.653103
v 2.932325 0.048533 0.618338
v 2.945743 0.048533 0.550882
v 2.918333 0.048940 0.580493
v 1.210869 -0.050000 2.698880
v 1.225661 -0.049424 2.730155
v 1.052182 -0.050000 2.764610
v 1.063838 -0.049424 2.797184
v -0.034389 0.048533 2.996613
v 0.034389 0.048533 2.996613
v 0.000000 0.048940 2.975507
v -1.693422 0.048533 2.472487
v -1.636236 0.048533 2.510698
v -1.653103 0.048940 2.474043
v -2.094609 0.048533 -2.143242
v -2.143242 0.048533 -2.094609
v -2.104001 0.048940 -2.104001
v -1.636236 0.048533 -2.510698
v -1.693422 0.048533 -2.472487
v -1.653103 0.048940 -2.474044
vn 0.2903 -0.0000 -0.9569
vn 0.6344 -0.0000 -0.7730
vn 0.7730 -0.0000 -0.6344
vn 0.8819 -0.0000 -0.4714
vn 0.9569 -0.0000 -0.2903
vn 0.9952 -0.0000 -0.0980
vn 0.9952 -0.0000 0.0980
vn 0.9569 -0.0000 0.2903
vn 0.8819 -0.0000 0.4714
vn 0.7730 -0.0000 0.6344
vn 0.6344 -0.0000 0.7730
vn 0.4714 -0.0000 0.8819
vn 0.0980 -0.0000 0.9952
vn -0.0980 -0.0000 -0.9952
vn 0.2903 -0.0000 0.9569
vn -0.2903 -0.0000 0.9569
vn -0.4714 -0.0000 0.8819
vn -0.6344 -0.0000 0.7730
vn -0.7730 -0.0000 0.6344
vn -0.8819 -0.0000 0.4714
vn -0.9569 -0.0000 0.2903
vn -0.9952 -0.0000 0.0980
vn -0.9952 -0.0000 -0.0980
vn -0.9569 -0.0000 -0.2903
vn -0.8819 -0.0000 -0.4714
vn -0.7730 -0.0000 -0.6344
vn -0.6344 -0.0000 -0.7730
vn -0.4714 -0.0000 -0.8819
vn -0.2903 -0.0000 -0.9569
vn 0.0016 0.9999 -0.0166
vn -0.0000 -1.0000 -0.0000
vn 0.4714 -0.0000 -0.8819
vn -0.0980 -0.0000 0.9952
vn 0.0070 0.9998 0.0170
vn -0.0016 0.9999 -0.0166
vn 0.0147 0.9999 -0.0079
vn 0.0079 0.9999 -0.0147
vn 0.0106 0.9999 -0.0129
vn 0.0159 0.9999 0.0048
vn 0.0129 0.9999 -0.0106
vn 0.0159 0.9999 -0.0048
vn 0.0166 0.9999 -0.0016
vn 0.3827 -0.0000 0.9239
vn 0.0166 0.9999 0.0016
vn 0.0147 0.9999 0.0079
vn 0.0129 0.9999 0.0106
vn 0.0106 0.9999 0.0129
vn 0.0079 0.9999 0.0147
vn -0.0016 0.9999 0.0166
vn 0.0048 0.9999 0.0159
vn -0.0106 0.9999 0.0129
vn 0.0016 0.9999 0.0166
vn -0.0048 0.9999 0.0159
vn -0.0106 0.9999 -0.0129
vn -0.0079 0.9999 0.0147
vn -0.0129 0.9999 0.0106
vn -0.0147 0.9999 0.0079
vn -0.0159 0.9999 0.0048
vn -0.0166 0.9999 0.0016
vn -0.0166 0.9999 -0.0016
vn -0.0159 0.9999 -0.0048
vn -0.0147 0.9999 -0.0079
vn -0.0079 0.9999 -0.0147
vn -0.0129 0.9999 -0.0106
vn -0.0048 0.9999 -0.0159
vn 0.0048 0.9999 -0.0159
vn -0.0000 1.0000 -0.0000
vn -0.0000 -0.9998 -0.0184
vn 0.0036 -0.9998 -0.0180
vn 0.0153 -0.9998 -0.0102
vn 0.0180 -0.9998 0.0036
vn -0.0000 -0.9998 0.0184
vn -0.0102 -0.9998 0.0153
vn -0.0130 -0.9998 -0.0130
vn -0.0102 -0.9998 -0.0153
vn -0.0000 0.9998 -0.0192
vn 0.0038 0.9998 -0.0189
vn 0.0160 0.9998 -0.0107
vn 0.0189 0.9998 0.0038
vn -0.0000 0.9998 0.0192
vn -0.0107 0.9998 0.0160
vn -0.0136 0.9998 -0.0136
vn -0.0107 0.9998 -0.0160
vn 0.0016 -0.9999 -0.0166
vn 0.0048 -0.9999 -0.0159
vn 0.0079 -0.9999 -0.0147
vn 0.0106 -0.9999 -0.0129
vn 0.0129 -0.9999 -0.0106
vn 0.0147 -0.9999 -0.0079
vn 0.0159 -0.9999 -0.0048
vn 0.0166 -0.9999 -0.0016
vn 0.0166 -0.9999 0.0016
vn 0.0159 -0.9999 0.0048
vn 0.0147 -0.9999 0.0079
vn 0.0129 -0.9999 0.0106
vn 0.0106 -0.9999 0.0129
vn 0.0016 -0.9999 0.0166
vn -0.0016 -0.9999 0.0166
vn -0.0048 -0.9999 0.0159
vn -0.0079 -0.9999 0.0147
vn -0.0106 -0.9999 0.0129
vn -0.0129 -0.9999 0.0106
vn -0.0147 -0.9999 0.0079
vn -0.0159 -0.9999 0.0048
vn -0.0166 -0.9999 0.0016
vn -0.0166 -0.9999 -0.0016
vn -0.0159 -0.9999 -0.0048
vn -0.0147 -0.9999 -0.0079
vn -0.0129 -0.9999 -0.0106
vn -0.0106 -0.9999 -0.0129
vn -0.0079 -0.9999 -0.0147
vn -0.0048 -0.9999 -0.0159
vn -0.0016 -0.9999 -0.0166
vn 0.0064 -0.9999 0.0154
vn -0.0000 -0.0000 -1.0000
vn 0.1951 -0.0000 -0.9808
vn 0.8315 -0.0000 -0.5556
vn 0.9808 -0.0000 0.1951
vn 0.0079 -0.9999 0.0147
vn 0.0048 -0.9999 0.0159
vn -0.0000 -0.0000 1.0000
vn -0.5556 -0.0000 0.8315
vn -0.7071 -0.0000 -0.7071
vn -0.5556 -0.0000 -0.8315
vn 0.0980 -0.0000 -0.9952
vt 2.212969 1.109274
vt 2.212969 2.286631
vt 2.142264 2.286631
vt 2.142264 1.109274
vt 2.067145 1.109274
vt 2.067145 2.286631
vt 1.992025 2.286631
vt 1.992025 1.109274
vt 1.921320 2.286631
vt 1.921320 1.109274
vt 1.912493 1.109274
vt 1.912492 2.286631
vt 1.841787 2.286631
vt 1.841787 1.109274
vt 1.766668 2.286631
vt 1.766668 1.109274
vt 1.691548 2.286631
vt 1.691548 1.109274
vt 1.691549 1.109274
vt 1.620843 2.286631
vt 1.620843 1.109274
vt 1.612016 1.109274
vt 1.612015 2.286631
vt 1.541310 2.286631
vt 1.541310 1.109274
vt 1.466191 2.286631
vt 1.466191 1.109274
vt 1.391072 2.286631
vt 1.391072 1.109274
vt 1.315952 2.286631
vt 1.315952 1.109274
vt 1.315952 2.286631
vt 1.252074 2.286631
vt 1.252074 1.109274
vt 1.165714 1.109274
vt 1.165714 2.286631
vt 1.095008 2.286631
vt 1.095008 1.109274
vt -0.036194 1.109274
vt -0.036194 2.286631
vt -0.106899 2.286631
vt -0.106899 1.109274
vt 1.229592 1.109274
vt 1.229593 2.286631
vt 1.015475 1.109274
vt 1.015475 2.286631
vt 0.940356 2.286631
vt 0.940356 1.109274
vt 0.940356 1.109274
vt 0.869651 2.286631
vt 0.869651 1.109274
vt 0.860823 1.109274
vt 0.860823 2.286631
vt 0.790118 2.286631
vt 0.790118 1.109274
vt 0.714998 2.286631
vt 0.714998 1.109274
vt 0.714999 1.109274
vt 0.639879 2.286631
vt 0.639879 1.109274
vt 0.564760 2.286631
vt 0.564760 1.109274
vt 0.489641 2.286631
vt 0.489641 1.109274
vt 0.489641 1.109274
vt 0.414522 2.286631
vt 0.414522 1.109274
vt 0.339402 2.286631
vt 0.339402 1.109274
vt 0.264283 2.286631
vt 0.264283 1.109274
vt 0.193578 2.286631
vt 0.193578 1.109274
vt 0.184750 1.109274
vt 0.184750 2.286631
vt 0.118458 2.286631
vt 0.118458 1.109274
vt 0.109631 1.109274
vt 0.109631 2.286631
vt 0.038925 2.286631
vt 0.038925 1.109274
vt 0.601273 1.062609
vt 0.595578 1.067880
vt 0.496254 1.077662
vt 0.489641 1.073604
vt 0.489641 1.061309
vt 0.598874 1.050550
vt 1.691548 1.071637
vt 1.802796 1.060679
vt 1.909769 1.028229
vt 2.008357 0.975534
vt 2.094768 0.904617
vt 2.165684 0.818205
vt 2.218379 0.719619
vt 2.250830 0.612646
vt 2.261786 0.501398
vt 2.250829 0.390150
vt 2.218379 0.283177
vt 2.165684 0.184590
vt 2.094768 0.098178
vt 2.008357 0.027262
vt 1.924405 -0.017611
vt 1.893889 -0.030251
vt 1.802796 -0.057884
vt 1.691549 -0.068841
vt 1.580301 -0.057884
vt 1.473328 -0.025434
vt 1.374741 0.027262
vt 1.288329 0.098178
vt 1.217412 0.184590
vt 1.164717 0.283177
vt 1.132267 0.390150
vt 1.121310 0.501398
vt 1.132267 0.612646
vt 1.164717 0.719619
vt 1.217412 0.818205
vt 1.288329 0.904617
vt 1.374741 0.975534
vt 1.473328 1.028229
vt 1.580301 1.060679
vt 1.086181 1.109274
vt 1.086181 2.286631
vt 0.703909 -0.015892
vt 0.694222 -0.036515
vt 0.725342 -0.023625
vt 0.483028 1.077662
vt 0.377090 1.067228
vt 0.380408 1.050550
vt 1.022641 0.722174
vt 0.972461 0.816055
vt 0.965412 0.819298
vt 0.955189 0.812467
vt 1.006930 0.715666
vt 0.810158 0.981086
vt 0.710417 1.034398
vt 0.703909 1.018687
vt 0.800710 0.966946
vt 0.897582 0.909339
vt 0.885557 0.897314
vt 1.022641 0.280622
vt 1.053542 0.382488
vt 1.050851 0.389766
vt 1.038793 0.392165
vt 1.006931 0.287129
vt 0.965412 0.819298
vt 0.965113 0.827052
vt 1.055471 0.613949
vt 1.038793 0.610631
vt 1.066557 0.501398
vt 1.049551 0.501398
vt 1.050852 0.389766
vt 1.056123 0.395460
vt 0.969329 0.180881
vt 0.955189 0.190328
vt 0.897582 0.093457
vt 0.885557 0.105481
vt 0.810158 0.021710
vt 0.800710 0.035849
vt 0.377090 -0.064433
vt 0.483028 -0.074867
vt 0.489641 -0.070808
vt 0.489641 -0.058513
vt 0.380408 -0.047754
vt 0.602191 -0.064433
vt 0.598874 -0.047754
vt 0.081700 0.093457
vt 0.163987 0.025925
vt 0.171740 0.025626
vt 0.178571 0.035849
vt 0.093724 0.105481
vt 0.496254 -0.074867
vt 0.268865 -0.031603
vt 0.275372 -0.015892
vt 0.171740 0.977169
vt 0.163987 0.976870
vt 0.086836 0.913554
vt 0.085030 0.906008
vt 0.093724 0.897314
vt 0.178571 0.966946
vt 0.171740 0.025626
vt 0.174984 0.018577
vt 0.009953 0.180881
vt 0.024092 0.190328
vt -0.043360 0.280622
vt -0.027649 0.287129
vt -0.076190 0.388847
vt -0.059511 0.392164
vt -0.087275 0.501398
vt -0.070270 0.501398
vt -0.076190 0.613949
vt -0.059511 0.610631
vt -0.043360 0.722174
vt -0.027649 0.715666
vt 0.009953 0.821915
vt 0.024092 0.812467
vt 0.268865 1.034398
vt 0.174984 0.984218
vt 0.171740 0.977169
vt 0.275372 1.018688
vt 0.085030 0.906008
vt 0.077484 0.904202
vt 0.608550 1.065299
vt 0.601273 1.062609
vt 2.288089 1.109274
vt 2.292068 1.102352
vt 2.292503 1.109274
vt 2.221797 1.109274
vt 2.217383 1.109274
vt 2.217818 1.102352
vt 1.916906 1.109274
vt 1.917341 1.102352
vt 1.616429 1.109274
vt 1.615995 1.102352
vt 1.090595 1.109274
vt 1.090160 1.102352
vt 0.865237 1.109274
vt 0.864802 1.102352
vt 0.189164 1.109274
vt 0.189599 1.102352
vt 0.114045 1.109274
vt 0.114479 1.102352
vt 0.489641 1.077986
vt 2.217383 2.286631
vt 2.221797 2.286631
vt 2.217690 2.286631
vt 1.916906 2.286631
vt 1.917213 2.286631
vt 1.616429 2.286631
vt 1.616123 2.286631
vt 1.090595 2.286631
vt 1.090288 2.286631
vt 0.865237 2.286631
vt 0.864930 2.286631
vt 0.189164 2.286631
vt 0.189470 2.286631
vt 0.114045 2.286631
vt 0.114351 2.286631
vt 2.142699 1.102352
vt 2.216949 1.102352
vt 2.067580 1.102352
vt 2.141829 1.102352
vt 1.992460 1.102352
vt 2.066710 1.102352
vt 1.991591 1.102352
vt 1.842222 1.102352
vt 1.916472 1.102352
vt 1.767102 1.102352
vt 1.841352 1.102352
vt 1.691983 1.102352
vt 1.766233 1.102352
vt 1.616864 1.102352
vt 1.691114 1.102352
vt 1.541745 1.102352
vt 1.466625 1.102352
vt 1.540875 1.102352
vt 1.391506 1.102352
vt 1.465756 1.102352
vt 1.316387 1.102352
vt 1.390637 1.102352
vt 1.091029 1.102352
vt 1.165279 1.102352
vt 1.015910 1.102352
vt 0.940791 1.102352
vt 1.015041 1.102352
vt 0.865672 1.102352
vt 0.939921 1.102352
vt 0.790552 1.102352
vt 0.715433 1.102352
vt 0.789683 1.102352
vt 0.640314 1.102352
vt 0.714564 1.102352
vt 0.565195 1.102352
vt 0.639445 1.102352
vt 0.490075 1.102352
vt 0.564325 1.102352
vt 0.414956 1.102352
vt 0.489206 1.102352
vt 0.339837 1.102352
vt 0.414087 1.102352
vt 0.264718 1.102352
vt 0.338968 1.102352
vt 0.263848 1.102352
vt 0.188729 1.102352
vt 0.039360 1.102352
vt 0.113610 1.102352
vt -0.035759 1.102352
vt 0.038491 1.102352
vt -0.110878 1.102352
vt -0.036629 1.102352
vt 1.229810 1.102352
vt 1.251856 1.102352
vt -0.111313 2.286631
vt -0.111313 1.109274
vt 1.252291 1.102352
vt 1.315518 1.102352
vt 1.166149 1.102352
vt 1.229376 1.102352
vt 2.288089 2.286631
s 0
usemtl 材质
f 62/1/1 131/2/1 4/3/1 64/4/1
f 66/5/2 6/6/2 8/7/2 68/8/2
f 68/8/3 8/7/3 135/9/3 70/10/3
f 71/11/4 134/12/4 11/13/4 73/14/4
f 73/14/5 11/13/5 13/15/5 75/16/5
f 75/16/6 13/15/6 15/17/6 77/18/6
f 77/19/7 15/17/7 138/20/7 79/21/7
f 80/22/8 137/23/8 18/24/8 82/25/8
f 82/25/9 18/24/9 20/26/9 84/27/9
f 84/27/10 20/26/10 22/28/10 86/29/10
f 86/29/11 22/28/11 24/30/11 89/31/11
f 89/31/12 24/32/12 27/33/12 141/34/12
f 91/35/13 29/36/13 145/37/13 92/38/13
f 126/39/14 57/40/14 129/41/14 60/42/14
f 143/43/15 26/44/15 29/36/15 91/35/15
f 95/45/16 32/46/16 34/47/16 97/48/16
f 97/49/17 34/47/17 148/50/17 99/51/17
f 100/52/18 147/53/18 37/54/18 102/55/18
f 102/55/19 37/54/19 39/56/19 104/57/19
f 104/58/20 39/56/20 41/59/20 106/60/20
f 106/60/21 41/59/21 43/61/21 108/62/21
f 108/62/22 43/61/22 45/63/22 110/64/22
f 110/65/23 45/63/23 47/66/23 112/67/23
f 112/67/24 47/66/24 49/68/24 114/69/24
f 114/69/25 49/68/25 51/70/25 116/71/25
f 116/71/26 51/70/26 151/72/26 118/73/26
f 119/74/27 150/75/27 154/76/27 121/77/27
f 122/78/28 153/79/28 55/80/28 124/81/28
f 124/81/29 55/80/29 57/40/29 126/39/29
f 133/82/30 132/83/30 128/84/30 130/85/30 1/86/30 2/87/30
f 59/88/31 63/89/31 65/90/31 67/91/31 69/92/31 72/93/31 74/94/31 76/95/31 78/96/31 81/97/31 83/98/31 85/99/31 87/100/31 88/101/31 140/102/31 142/103/31 90/104/31 94/105/31 96/106/31 98/107/31 101/108/31 103/109/31 105/110/31 107/111/31 109/112/31 111/113/31 113/114/31 115/115/31 117/116/31 120/117/31 123/118/31 125/119/31 127/120/31
f 64/4/32 4/3/32 6/6/32 66/5/32
f 93/121/33 144/122/33 32/46/33 95/45/33
f 25/123/34 26/124/34 27/125/34
f 130/85/35 129/126/35 57/127/35 56/128/35 1/86/35
f 11/129/36 134/130/36 136/131/36 9/132/36 10/133/36
f 6/134/37 4/135/37 3/136/37 5/137/37
f 8/138/38 6/134/38 5/137/38 7/139/38
f 18/140/39 137/141/39 139/142/39 16/143/39 17/144/39
f 136/145/40 135/146/40 8/138/40 7/139/40 9/132/40
f 13/147/41 11/129/41 10/133/41 12/148/41
f 15/149/42 13/147/42 12/148/42 14/150/42
f 26/44/43 143/43/43 141/34/43 27/33/43
f 139/151/44 138/152/44 15/149/44 14/150/44 16/143/44
f 20/153/45 18/140/45 17/144/45 19/154/45
f 22/155/46 20/153/46 19/154/46 21/156/46
f 24/157/47 22/155/47 21/156/47 23/158/47
f 27/125/48 24/157/48 23/158/48 25/123/48
f 32/159/49 144/160/49 146/161/49 30/162/49 31/163/49
f 29/164/50 26/124/50 25/123/50 28/165/50
f 37/166/51 147/167/51 149/168/51 35/169/51 36/170/51
f 146/161/52 145/171/52 29/164/52 28/165/52 30/162/52
f 34/172/53 32/159/53 31/163/53 33/173/53
f 155/174/54 154/175/54 150/176/54 152/177/54 52/178/54 53/179/54
f 149/180/55 148/181/55 34/172/55 33/173/55 35/169/55
f 39/182/56 37/166/56 36/170/56 38/183/56
f 41/184/57 39/182/57 38/183/57 40/185/57
f 43/186/58 41/184/58 40/185/58 42/187/58
f 45/188/59 43/186/59 42/187/59 44/189/59
f 47/190/60 45/188/60 44/189/60 46/191/60
f 49/192/61 47/190/61 46/191/61 48/193/61
f 51/194/62 49/192/62 48/193/62 50/195/62
f 55/196/63 153/197/63 155/198/63 53/179/63 54/199/63
f 152/200/64 151/201/64 51/194/64 50/195/64 52/178/64
f 57/127/65 55/196/65 54/199/65 56/128/65
f 4/135/66 131/202/66 133/203/66 2/87/66 3/136/66
f 2/87/67 1/86/67 56/128/67 54/199/67 53/179/67 52/178/67 50/195/67 48/193/67 46/191/67 44/189/67 42/187/67 40/185/67 38/183/67 36/170/67 35/169/67 33/173/67 31/163/67 30/162/67 28/165/67 25/123/67 23/158/67 21/156/67 19/154/67 17/144/67 16/143/67 14/150/67 12/148/67 10/133/67 9/132/67 7/139/67 5/137/67 3/136/67
f 58/204/68 59/205/68 60/206/68
f 61/207/69 62/208/69 63/209/69
f 70/10/70 71/210/70 72/211/70
f 79/212/71 80/22/71 81/213/71
f 92/214/72 93/121/72 94/215/72
f 99/216/73 100/52/73 101/217/73
f 118/73/74 119/218/74 120/219/74
f 121/77/75 122/220/75 123/221/75
f 128/222/76 129/126/76 130/85/76
f 131/223/77 132/224/77 133/225/77
f 134/226/78 135/9/78 136/227/78
f 137/23/79 138/228/79 139/229/79
f 144/122/80 145/230/80 146/231/80
f 147/53/81 148/232/81 149/233/81
f 150/234/82 151/72/82 152/235/82
f 153/236/83 154/76/83 155/237/83
f 58/204/84 61/207/84 63/209/84 59/205/84
f 62/1/85 64/4/85 65/238/85 63/239/85
f 64/4/86 66/5/86 67/240/86 65/241/86
f 66/5/87 68/8/87 69/242/87 67/243/87
f 68/8/88 70/10/88 72/211/88 69/244/88
f 71/11/89 73/14/89 74/245/89 72/246/89
f 73/14/90 75/16/90 76/247/90 74/248/90
f 75/16/91 77/18/91 78/249/91 76/250/91
f 77/19/92 79/21/92 81/251/92 78/252/92
f 80/22/93 82/25/93 83/253/93 81/213/93
f 82/25/94 84/27/94 85/254/94 83/255/94
f 84/27/95 86/29/95 87/256/95 85/257/95
f 86/29/96 89/31/96 88/258/96 87/259/96
f 91/35/97 92/38/97 94/260/97 90/261/97
f 93/121/98 95/45/98 96/262/98 94/215/98
f 95/45/99 97/48/99 98/263/99 96/264/99
f 97/49/100 99/51/100 101/265/100 98/266/100
f 100/52/101 102/55/101 103/267/101 101/217/101
f 102/55/102 104/57/102 105/268/102 103/269/102
f 104/58/103 106/60/103 107/270/103 105/271/103
f 106/60/104 108/62/104 109/272/104 107/273/104
f 108/62/105 110/64/105 111/274/105 109/275/105
f 110/65/106 112/67/106 113/276/106 111/277/106
f 112/67/107 114/69/107 115/278/107 113/279/107
f 114/69/108 116/71/108 117/280/108 115/281/108
f 116/71/109 118/73/109 120/219/109 117/282/109
f 119/74/110 121/77/110 123/221/110 120/283/110
f 122/78/111 124/81/111 125/284/111 123/285/111
f 124/81/112 126/39/112 127/286/112 125/287/112
f 126/39/113 60/42/113 59/288/113 127/289/113
f 142/290/114 140/291/114 141/34/114 143/43/114
f 60/42/115 129/41/115 128/292/115 58/293/115
f 131/2/116 62/1/116 61/207/116 132/224/116
f 134/12/117 71/11/117 70/10/117 135/9/117
f 137/23/118 80/22/118 79/21/118 138/20/118
f 140/294/119 88/295/119 89/31/119 141/34/119
f 143/43/120 91/35/120 90/296/120 142/297/120
f 144/122/121 93/121/121 92/38/121 145/37/121
f 147/53/122 100/52/122 99/51/122 148/50/122
f 150/75/123 119/74/123 118/73/123 151/72/123
f 153/79/124 122/78/124 121/77/124 154/76/124
f 58/204/125 128/298/125 132/224/125 61/207/125
